<svg width="65" height="57" viewBox="0 0 65 57" fill="none" xmlns="http://www.w3.org/2000/svg">
<g clip-path="url(#clip0_1_1898)">
<path d="M17.1312 0.345703C21.9051 0.345703 25.7753 4.23376 25.7753 9.02989V24.2273C25.7753 24.627 26.0978 24.951 26.4956 24.951C26.8934 24.951 27.2159 24.627 27.2159 24.2273V9.02989C27.2159 4.23375 31.086 0.345703 35.86 0.345703H47.3854C52.9551 0.345703 57.4701 4.88177 57.4701 10.4773V14.107C57.4701 16.5446 56.5957 18.9011 55.0066 20.7431L45.133 32.1878H33.6948L48.4743 15.0554L48.5545 14.9536C48.7307 14.7081 48.8261 14.4118 48.8261 14.107V10.4773C48.8261 9.6779 48.1811 9.02989 47.3854 9.02989H37.3007V8.30623C37.3007 7.90655 36.9782 7.58255 36.5804 7.58255C36.1825 7.58255 35.86 7.90655 35.86 8.30623V23.5036C35.86 28.2997 31.9899 32.1878 27.2159 32.1878H25.7753C21.0012 32.1878 17.1312 28.2997 17.1312 23.5036V8.30623C17.1312 7.90655 16.8087 7.58255 16.4108 7.58255C16.013 7.58255 15.6905 7.90655 15.6905 8.30623V32.1878H7.04643V9.02989C7.04643 4.23375 10.9165 0.345703 15.6905 0.345703H17.1312Z" fill="#FC5800"/>
</g>
<path d="M8.98263 50V40.76H10.7466V50H8.98263ZM9.38863 50V48.488H14.7926V50H9.38863ZM19.216 50.182C18.628 50.182 18.1006 50.098 17.634 49.93C17.1766 49.762 16.7893 49.5193 16.472 49.202C16.1546 48.8753 15.912 48.4833 15.744 48.026C15.576 47.5687 15.492 47.0507 15.492 46.472C15.492 45.8933 15.5713 45.3613 15.73 44.876C15.898 44.3907 16.136 43.9707 16.444 43.616C16.752 43.2613 17.1253 42.986 17.564 42.79C18.012 42.594 18.5206 42.496 19.09 42.496C19.622 42.496 20.098 42.5847 20.518 42.762C20.938 42.9393 21.2926 43.2053 21.582 43.56C21.8713 43.9053 22.086 44.3393 22.226 44.862C22.366 45.3753 22.4126 45.9727 22.366 46.654L16.64 46.696V45.674L21.344 45.632L20.728 46.206C20.784 45.674 20.742 45.24 20.602 44.904C20.462 44.5587 20.2613 44.3067 20 44.148C19.7386 43.98 19.44 43.896 19.104 43.896C18.7213 43.896 18.3853 43.9987 18.096 44.204C17.8066 44.4 17.5826 44.6893 17.424 45.072C17.2746 45.4453 17.2 45.9027 17.2 46.444C17.2 47.256 17.3773 47.8627 17.732 48.264C18.096 48.6653 18.5906 48.866 19.216 48.866C19.496 48.866 19.7293 48.8333 19.916 48.768C20.112 48.6933 20.2753 48.6 20.406 48.488C20.5366 48.3667 20.6393 48.2313 20.714 48.082C20.798 47.9327 20.8633 47.774 20.91 47.606L22.45 47.956C22.3753 48.3013 22.254 48.6093 22.086 48.88C21.918 49.1507 21.6986 49.384 21.428 49.58C21.1666 49.776 20.854 49.9253 20.49 50.028C20.126 50.1307 19.7013 50.182 19.216 50.182ZM25.6997 50.182C25.2984 50.182 24.9391 50.1073 24.6217 49.958C24.3044 49.7993 24.0524 49.566 23.8657 49.258C23.6884 48.95 23.5997 48.5673 23.5997 48.11C23.5997 47.7273 23.6697 47.4007 23.8097 47.13C23.9591 46.8593 24.1784 46.64 24.4677 46.472C24.7571 46.2947 25.1164 46.15 25.5457 46.038C25.9751 45.9167 26.4791 45.814 27.0577 45.73C27.3751 45.6833 27.6317 45.6367 27.8277 45.59C28.0331 45.5433 28.1824 45.4733 28.2757 45.38C28.3691 45.2773 28.4157 45.128 28.4157 44.932C28.4157 44.6427 28.3131 44.3953 28.1077 44.19C27.9117 43.9753 27.5897 43.868 27.1417 43.868C26.8711 43.868 26.6097 43.9147 26.3577 44.008C26.1151 44.1013 25.9051 44.2507 25.7277 44.456C25.5504 44.652 25.4291 44.9133 25.3637 45.24L23.7817 44.75C23.8844 44.3767 24.0337 44.0547 24.2297 43.784C24.4257 43.504 24.6684 43.266 24.9577 43.07C25.2471 42.874 25.5784 42.7293 25.9517 42.636C26.3251 42.5427 26.7357 42.496 27.1837 42.496C27.8651 42.496 28.4251 42.608 28.8637 42.832C29.3024 43.0467 29.6291 43.3873 29.8437 43.854C30.0584 44.3113 30.1657 44.904 30.1657 45.632V47.004C30.1657 47.3213 30.1704 47.6527 30.1797 47.998C30.1984 48.334 30.2171 48.6747 30.2357 49.02C30.2637 49.356 30.2964 49.6827 30.3337 50H28.7517C28.7144 49.7387 28.6817 49.4587 28.6537 49.16C28.6257 48.8613 28.6024 48.558 28.5837 48.25H28.3597C28.2291 48.6047 28.0424 48.9313 27.7997 49.23C27.5571 49.5193 27.2584 49.7527 26.9037 49.93C26.5584 50.098 26.1571 50.182 25.6997 50.182ZM26.3997 48.88C26.5864 48.88 26.7731 48.8473 26.9597 48.782C27.1557 48.7167 27.3471 48.6187 27.5337 48.488C27.7204 48.3573 27.8931 48.1987 28.0517 48.012C28.2104 47.816 28.3457 47.5873 28.4577 47.326L28.4297 46.08L28.7657 46.136C28.6071 46.2667 28.4111 46.3693 28.1777 46.444C27.9444 46.5187 27.6971 46.5747 27.4357 46.612C27.1837 46.6493 26.9271 46.696 26.6657 46.752C26.4137 46.7987 26.1851 46.864 25.9797 46.948C25.7744 47.0227 25.6111 47.1347 25.4897 47.284C25.3684 47.424 25.3077 47.62 25.3077 47.872C25.3077 48.1893 25.4104 48.4367 25.6157 48.614C25.8211 48.7913 26.0824 48.88 26.3997 48.88ZM32.0721 50V46.332V42.678H33.5561L33.5281 45.198H33.7801C33.8641 44.6007 33.9948 44.106 34.1721 43.714C34.3495 43.3127 34.5968 43.014 34.9141 42.818C35.2315 42.6127 35.6235 42.51 36.0901 42.51C36.1835 42.51 36.2815 42.5147 36.3841 42.524C36.4961 42.5333 36.6175 42.5567 36.7481 42.594L36.6781 44.456C36.5288 44.4 36.3748 44.3627 36.2161 44.344C36.0668 44.316 35.9268 44.302 35.7961 44.302C35.4321 44.302 35.1148 44.3953 34.8441 44.582C34.5828 44.7687 34.3681 45.0347 34.2001 45.38C34.0415 45.716 33.9201 46.1173 33.8361 46.584V50H32.0721ZM37.9784 50V45.534V42.678H39.4484L39.4064 44.918H39.6584C39.789 44.3673 39.9617 43.9147 40.1764 43.56C40.4004 43.2053 40.685 42.9393 41.0304 42.762C41.3757 42.5847 41.777 42.496 42.2344 42.496C43.065 42.496 43.695 42.79 44.1244 43.378C44.563 43.966 44.7824 44.876 44.7824 46.108V50H43.0044V46.29C43.0044 45.4967 42.883 44.918 42.6404 44.554C42.407 44.1807 42.057 43.994 41.5904 43.994C41.1984 43.994 40.867 44.12 40.5964 44.372C40.3257 44.6147 40.1157 44.9413 39.9664 45.352C39.8264 45.7533 39.7517 46.1967 39.7424 46.682V50H37.9784ZM46.6463 50V42.678H48.4103V50H46.6463ZM47.5283 41.53C47.1737 41.53 46.8983 41.4553 46.7023 41.306C46.5157 41.1473 46.4223 40.9233 46.4223 40.634C46.4223 40.3447 46.5157 40.1253 46.7023 39.976C46.8983 39.8173 47.1737 39.738 47.5283 39.738C47.9017 39.738 48.1817 39.8127 48.3683 39.962C48.555 40.1113 48.6483 40.3353 48.6483 40.634C48.6483 40.9233 48.5503 41.1473 48.3543 41.306C48.1677 41.4553 47.8923 41.53 47.5283 41.53ZM49.6364 50L52.0864 46.346L49.6364 42.678H51.6804L53.1364 45.506H53.3604L54.8164 42.678H56.8604L54.4104 46.346L56.8884 50H54.8584L53.3604 47.158H53.1364L51.6944 50H49.6364Z" fill="black"/>
<defs>
<clipPath id="clip0_1_1898">
<rect width="51" height="33" fill="white" transform="translate(7)"/>
</clipPath>
</defs>
</svg>
